<svg xmlns="http://www.w3.org/2000/svg" viewBox="0 0 1280 720" width="1280" height="720">
  <defs>
    <linearGradient id="coverBg" x1="0" y1="0" x2="1" y2="1">
      <stop offset="0" stop-color="#0B1F3A"/>
      <stop offset="0.58" stop-color="#003B7A"/>
      <stop offset="1" stop-color="#2C7CC3"/>
    </linearGradient>
    <pattern id="grid" width="36" height="36" patternUnits="userSpaceOnUse">
      <path d="M36 0H0V36" fill="none" stroke="#FFFFFF" stroke-opacity="0.08" stroke-width="1"/>
    </pattern>
  </defs>
  <rect width="1280" height="720" fill="url(#coverBg)"/>
  <rect x="760" y="0" width="520" height="720" fill="url(#grid)"/>
  <path d="M740 640 C910 460 980 270 1200 90" fill="none" stroke="#FFFFFF" stroke-opacity="0.25" stroke-width="2"/>
  <path d="M700 600 C860 520 1040 500 1210 330" fill="none" stroke="#FFFFFF" stroke-opacity="0.16" stroke-width="2" stroke-dasharray="8 10"/>
  <circle cx="1040" cy="240" r="68" fill="none" stroke="#FFFFFF" stroke-opacity="0.18" stroke-width="2"/>
  <circle cx="1040" cy="240" r="5" fill="#C8102E"/>
  <g transform="translate(72 58)">
    <rect x="0" y="0" width="8" height="42" fill="#C8102E"/>
    <text x="24" y="26" font-family="Microsoft YaHei, SimHei, Arial, sans-serif" font-size="22" font-weight="700" fill="#FFFFFF">BEIHANG UNIVERSITY</text>
    <text x="24" y="48" font-family="Microsoft YaHei, SimHei, Arial, sans-serif" font-size="15" fill="#C8D8EA">Academic Presentation Template</text>
  </g>
  <g transform="translate(86 228)">
    <text x="0" y="0" font-family="Microsoft YaHei, SimHei, Arial, sans-serif" font-size="46" font-weight="700" fill="#FFFFFF">Presentation Title</text>
    <text x="0" y="58" font-family="Microsoft YaHei, SimHei, Arial, sans-serif" font-size="24" fill="#DDEAF7">Research subtitle or meeting topic</text>
    <rect x="0" y="100" width="86" height="4" fill="#C8102E"/>
    <rect x="94" y="100" width="180" height="4" fill="#2C7CC3"/>
    <text x="0" y="156" font-family="Microsoft YaHei, SimHei, Arial, sans-serif" font-size="17" fill="#C8D8EA">Presenter / Group / Date</text>
  </g>
  <g transform="translate(78 654)" font-family="Microsoft YaHei, SimHei, Arial, sans-serif" font-size="12" fill="#C8D8EA">
    <text x="0" y="0">Beihang academic report template</text>
    <line x1="210" y1="-5" x2="940" y2="-5" stroke="#FFFFFF" stroke-opacity="0.24"/>
    <text x="1036" y="0">01</text>
  </g>
</svg>
